GRF
version=1
nRows=40
nColumns=10
inDegrees=no
endheader
time	1_ground_force_vx	1_ground_force_vy	1_ground_force_vz	1_ground_force_px	1_ground_force_py	1_ground_force_pz	1_ground_torque_x	1_ground_torque_y	1_ground_torque_z
      1.05500000	      3.08390531	    766.28316540	      4.18849044	      0.36792413	      0.00000000	      0.19352550	     -0.00000000	      0.84615484	     -0.00000000
      1.05600000	      3.10539357	    766.22364662	      4.14030979	      0.36786989	      0.00000000	      0.19355124	     -0.00000000	      0.85583788	     -0.00000000
      1.05700000	      3.13877871	    766.06610762	      4.07385296	      0.36782905	      0.00000000	      0.19356014	     -0.00000000	      0.86571712	     -0.00000000
      1.05800000	      3.21710457	    765.88851477	      4.00370517	      0.36778190	      0.00000000	      0.19355976	     -0.00000000	      0.87228372	     -0.00000000
      1.05900000	      3.32936596	    765.72586086	      3.93587567	      0.36773582	      0.00000000	      0.19357009	     -0.00000000	      0.87155812	     -0.00000000
      1.06000000	      3.44730736	    765.56226123	      3.87386792	      0.36768807	      0.00000000	      0.19359809	     -0.00000000	      0.86029302	     -0.00000000
      1.06100000	      3.54764200	    765.39380774	      3.79423769	      0.36764335	      0.00000000	      0.19364598	     -0.00000000	      0.84292034	     -0.00000000
      1.06200000	      3.62016186	    765.21177156	      3.70460075	      0.36759557	      0.00000000	      0.19370966	      0.00000000	      0.82436503	      0.00000000
      1.06300000	      3.65074589	    765.06683898	      3.64270401	      0.36754400	      0.00000000	      0.19377267	      0.00000000	      0.81185978	      0.00000000
      1.06400000	      3.64891693	    765.00535997	      3.62101437	      0.36747665	      0.00000000	      0.19383898	      0.00000000	      0.80634440	      0.00000000
      1.06500000	      3.61966005	    765.05062151	      3.62207210	      0.36739795	      0.00000000	      0.19390347	      0.00000000	      0.80423532	      0.00000000
      1.06600000	      3.59709787	    765.10849491	      3.61612250	      0.36731098	      0.00000000	      0.19395884	      0.00000000	      0.80300039	      0.00000000
      1.06700000	      3.59195961	    765.09888325	      3.58340020	      0.36723481	      0.00000000	      0.19400306	      0.00000000	      0.80604289	      0.00000000
      1.06800000	      3.61065745	    764.94256081	      3.54298618	      0.36717442	      0.00000000	      0.19403803	      0.00000000	      0.81199751	      0.00000000
      1.06900000	      3.65164518	    764.72371511	      3.51613176	      0.36711203	      0.00000000	      0.19407198	      0.00000000	      0.82177130	      0.00000000
      1.07000000	      3.71368674	    764.59412531	      3.52074825	      0.36703003	      0.00000000	      0.19411685	      0.00000000	      0.83166451	      0.00000000
      1.07100000	      3.77771651	    764.54094706	      3.52821398	      0.36693085	      0.00000000	      0.19415743	      0.00000000	      0.83913339	      0.00000000
      1.07200000	      3.85173067	    764.50094480	      3.51262742	      0.36684419	      0.00000000	      0.19419266	      0.00000000	      0.84323919	      0.00000000
      1.07300000	      3.93218923	    764.41780203	      3.45793130	      0.36677993	      0.00000000	      0.19421291	      0.00000000	      0.84430399	      0.00000000
      1.07400000	      4.03768374	    764.24741306	      3.36950930	      0.36675775	      0.00000000	      0.19423207	     -0.00000000	      0.84138096	     -0.00000000
      1.07500000	      4.15057035	    764.07573295	      3.26738583	      0.36675443	      0.00000000	      0.19425870	     -0.00000000	      0.83919519	     -0.00000000
      1.07600000	      4.23222777	    763.94757638	      3.16417645	      0.36675457	      0.00000000	      0.19429355	     -0.00000000	      0.83936596	     -0.00000000
      1.07700000	      4.26003195	    763.87396163	      3.05840531	      0.36674538	      0.00000000	      0.19432696	     -0.00000000	      0.84188662	     -0.00000000
      1.07800000	      4.25018831	    763.90217405	      2.96603308	      0.36671557	      0.00000000	      0.19435399	     -0.00000000	      0.84356825	     -0.00000000
      1.07900000	      4.24119598	    763.94417721	      2.90472485	      0.36667597	      0.00000000	      0.19437740	      0.00000000	      0.84416948	      0.00000000
      1.08000000	      4.27048698	    764.01430039	      2.89359659	      0.36664148	      0.00000000	      0.19441115	      0.00000000	      0.84621111	      0.00000000
      1.08100000	      4.33050807	    764.11535015	      2.92550171	      0.36659699	      0.00000000	      0.19445248	      0.00000000	      0.84954882	      0.00000000
      1.08200000	      4.39931692	    764.22975761	      2.96674106	      0.36654635	      0.00000000	      0.19449940	      0.00000000	      0.84927746	      0.00000000
      1.08300000	      4.45910638	    764.35348225	      2.98560200	      0.36647052	      0.00000000	      0.19453703	     -0.00000000	      0.84291775	     -0.00000000
      1.08400000	      4.51575100	    764.45995298	      2.95819672	      0.36638979	      0.00000000	      0.19456374	     -0.00000000	      0.83109806	     -0.00000000
      1.08500000	      4.56710055	    764.51784765	      2.90249927	      0.36632291	      0.00000000	      0.19459216	     -0.00000000	      0.82478638	     -0.00000000
      1.08600000	      4.61434269	    764.49603849	      2.83629125	      0.36628773	      0.00000000	      0.19462520	     -0.00000000	      0.82729300	     -0.00000000
      1.08700000	      4.65698862	    764.31720907	      2.77690552	      0.36629006	      0.00000000	      0.19466572	     -0.00000000	      0.83977222	     -0.00000000
      1.08800000	      4.67870936	    764.02497322	      2.74364940	      0.36630091	      0.00000000	      0.19471259	      0.00000000	      0.85765897	     -0.00000000
      1.08900000	      4.67510154	    763.73768973	      2.73626893	      0.36629279	      0.00000000	      0.19475510	      0.00000000	      0.87251527	     -0.00000000
      1.09000000	      4.64942016	    763.52137038	      2.73653802	      0.36624898	      0.00000000	      0.19478836	      0.00000000	      0.88073365	     -0.00000000
      1.09100000	      4.61070371	    763.35475123	      2.74025273	      0.36617307	      0.00000000	      0.19480923	      0.00000000	      0.88373475	     -0.00000000
      1.09200000	      4.60693627	    763.13326317	      2.73259608	      0.36611233	      0.00000000	      0.19481629	      0.00000000	      0.88291801	     -0.00000000
      1.09300000	      4.63599432	    762.86943414	      2.72611333	      0.36607921	      0.00000000	      0.19483618	      0.00000000	      0.88370932	     -0.00000000
      1.09400000	      4.68900423	    762.58048500	      2.71317317	      0.36607957	      0.00000000	      0.19487087	     -0.00000000	      0.88126268	     -0.00000000
